<svg id="Ebene_1" data-name="Ebene 1" xmlns="http://www.w3.org/2000/svg" viewBox="0 0 32 32"><defs><style>.cls-1{fill:#fff;}</style></defs><rect width="32" height="32"/><rect class="cls-1" y="28" width="4" height="4"/><rect class="cls-1" y="24" width="4" height="4"/><rect class="cls-1" y="20" width="4" height="4"/><rect class="cls-1" x="4" y="20" width="4" height="4"/><rect class="cls-1" x="4" y="16" width="4" height="4"/><rect class="cls-1" x="4" y="12" width="4" height="4"/><rect class="cls-1" x="4" y="8" width="4" height="4"/><rect class="cls-1" x="8" y="28" width="4" height="4"/><rect class="cls-1" x="8" y="12" width="4" height="4"/><rect class="cls-1" x="8" y="8" width="4" height="4"/><rect class="cls-1" x="8" y="4" width="4" height="4"/><rect class="cls-1" x="8" width="4" height="4"/><rect class="cls-1" x="12" y="28" width="4" height="4"/><rect class="cls-1" x="12" y="24" width="4" height="4"/><rect class="cls-1" x="12" y="20" width="4" height="4"/><rect class="cls-1" x="12" y="4" width="4" height="4"/><rect class="cls-1" x="12" width="4" height="4"/><rect class="cls-1" x="16" y="20" width="4" height="4"/><rect class="cls-1" x="16" y="16" width="4" height="4"/><rect class="cls-1" x="16" y="12" width="4" height="4"/><rect class="cls-1" x="20" y="28" width="4" height="4"/><rect class="cls-1" x="20" y="16" width="4" height="4"/><rect class="cls-1" x="20" y="12" width="4" height="4"/><rect class="cls-1" x="20" y="8" width="4" height="4"/><rect class="cls-1" x="20" y="4" width="4" height="4"/><rect class="cls-1" x="20" width="4" height="4"/><rect class="cls-1" x="24" y="28" width="4" height="4"/><rect class="cls-1" x="24" y="24" width="4" height="4"/><rect class="cls-1" x="24" y="12" width="4" height="4"/><rect class="cls-1" x="24" y="8" width="4" height="4"/><rect class="cls-1" x="24" y="4" width="4" height="4"/><rect class="cls-1" x="24" width="4" height="4"/><rect class="cls-1" x="28" y="28" width="4" height="4"/><rect class="cls-1" x="28" y="24" width="4" height="4"/><rect class="cls-1" x="28" y="20" width="4" height="4"/><rect class="cls-1" x="28" y="8" width="4" height="4"/><rect class="cls-1" x="28" y="4" width="4" height="4"/><rect class="cls-1" x="28" width="4" height="4"/></svg>